<?xml version="1.0" encoding="iso-8859-1"?>
<!-- Generator: Adobe Illustrator 17.1.0, SVG Export Plug-In . SVG Version: 6.00 Build 0)  -->
<!DOCTYPE svg PUBLIC "-//W3C//DTD SVG 1.1//EN" "http://www.w3.org/Graphics/SVG/1.1/DTD/svg11.dtd">
<svg version="1.1" id="Capa_1" xmlns="http://www.w3.org/2000/svg" xmlns:xlink="http://www.w3.org/1999/xlink" x="0px" y="0px"
	 viewBox="0 0 201.903 201.903" style="enable-background:new 0 0 201.903 201.903;" xml:space="preserve">
<path d="M68.127,201.903c-3.242,0-6.223-1.206-8.449-3.434c-2.071-2.07-3.259-4.866-3.405-7.844
	c-2.978-0.146-5.773-1.333-7.844-3.404c-2.071-2.071-3.258-4.867-3.405-7.844c-2.978-0.147-5.773-1.334-7.844-3.405
	c-2.07-2.07-3.258-4.866-3.404-7.844c-2.979-0.146-5.774-1.333-7.845-3.404c-2.071-2.071-3.258-4.867-3.404-7.844
	c-2.978-0.146-5.773-1.334-7.844-3.405c-2.071-2.07-3.259-4.866-3.405-7.844c-2.978-0.146-5.772-1.333-7.844-3.405
	c-4.829-4.829-4.512-13.004,0.707-18.223c0.06-0.06,0.12-0.116,0.182-0.171c0.066-0.074,0.124-0.135,0.185-0.195l85.339-85.339
	c0.002-0.002,0.004-0.003,0.006-0.005l33.24-33.24c0.154-0.155,0.314-0.303,0.479-0.445c0.141-0.159,0.281-0.316,0.434-0.467
	c2.496-2.497,5.741-3.962,9.138-4.125c3.492-0.164,6.714,1.046,9.085,3.418c2.071,2.071,3.259,4.867,3.405,7.844
	c2.978,0.146,5.773,1.333,7.844,3.404s3.258,4.867,3.404,7.844c2.979,0.146,5.774,1.333,7.845,3.405
	c2.07,2.07,3.258,4.867,3.404,7.844c2.978,0.146,5.773,1.333,7.844,3.404c2.071,2.071,3.259,4.867,3.405,7.844
	c2.978,0.146,5.773,1.333,7.844,3.405c2.071,2.071,3.259,4.867,3.405,7.844c2.978,0.146,5.773,1.333,7.844,3.404
	c4.829,4.829,4.512,13.004-0.707,18.223c-0.24,0.241-0.488,0.467-0.74,0.685c-0.075,0.084-0.137,0.149-0.2,0.212L78.344,197.283
	c-0.145,0.163-0.289,0.324-0.445,0.48c-2.496,2.497-5.741,3.961-9.137,4.125C68.549,201.898,68.337,201.903,68.127,201.903z
	 M61.284,189.322c-0.193,2.163,0.487,4.171,1.929,5.612c1.363,1.363,3.258,2.063,5.309,1.959c2.152-0.104,4.227-1.05,5.843-2.666
	c0.083-0.083,0.158-0.171,0.235-0.257l0.125-0.141c0.029-0.033,0.061-0.066,0.093-0.098l83.466-83.466l-8.971-8.971L61.284,189.322z
	 M50.039,178.028c-0.207,2.18,0.474,4.207,1.925,5.658c1.526,1.526,3.69,2.199,6.001,1.884l87.812-87.811l-7.734-7.735
	L50.039,178.028z M38.794,166.731c-0.221,2.199,0.459,4.245,1.92,5.707c1.517,1.515,3.661,2.191,5.952,1.892l87.84-87.84
	l-7.735-7.735L38.794,166.731z M27.551,155.433c-0.236,2.217,0.442,4.283,1.914,5.755c1.505,1.505,3.626,2.181,5.903,1.897
	l87.867-87.868l-7.735-7.735L27.551,155.433z M16.308,144.136c-0.252,2.236,0.426,4.32,1.909,5.803
	c1.493,1.494,3.595,2.171,5.853,1.904l87.896-87.895l-7.735-7.735L16.308,144.136z M91.616,43.599L8.035,127.179
	c-0.013,0.014-0.089,0.102-0.102,0.115c-0.036,0.04-0.074,0.079-0.113,0.116l-0.157,0.142c-3.257,3.255-3.573,8.258-0.694,11.138
	c1.482,1.482,3.565,2.163,5.804,1.909l87.923-87.922L91.616,43.599z M152.847,97.759l8.971,8.971l31.61-31.627
	c0.07-0.076,0.145-0.148,0.224-0.215c0.196-0.167,0.39-0.338,0.576-0.524c3.27-3.27,3.586-8.272,0.707-11.152
	c-1.439-1.439-3.445-2.119-5.611-1.928L152.847,97.759z M141.577,86.489l7.735,7.735l36.259-36.259
	c0.316-2.31-0.357-4.475-1.885-6.002c-1.451-1.451-3.481-2.13-5.658-1.925L141.577,86.489z M130.306,75.218l7.735,7.735
	l36.287-36.288c0.3-2.292-0.375-4.436-1.892-5.952c-1.462-1.462-3.504-2.137-5.707-1.92L130.306,75.218z M119.037,63.948
	l7.734,7.735l36.315-36.316c0.283-2.273-0.394-4.397-1.897-5.902c-1.472-1.472-3.532-2.151-5.755-1.915L119.037,63.948z
	 M107.766,52.678l7.734,7.735l36.343-36.343c0.268-2.254-0.41-4.359-1.903-5.853c-1.482-1.482-3.569-2.159-5.804-1.909
	L107.766,52.678z M95.151,40.063l9.079,9.079l36.37-36.371c0.252-2.235-0.426-4.32-1.909-5.804c-1.362-1.362-3.237-2.056-5.31-1.959
	c-2.152,0.104-4.227,1.05-5.843,2.666c-0.083,0.083-0.158,0.171-0.235,0.258l-0.119,0.134c-0.085,0.095-0.177,0.184-0.275,0.265
	c-0.097,0.079-0.189,0.163-0.279,0.252L95.151,40.063z"/>
<g>
</g>
<g>
</g>
<g>
</g>
<g>
</g>
<g>
</g>
<g>
</g>
<g>
</g>
<g>
</g>
<g>
</g>
<g>
</g>
<g>
</g>
<g>
</g>
<g>
</g>
<g>
</g>
<g>
</g>
</svg>
