<?xml version="1.0" encoding="iso-8859-1"?>
<!-- Generator: Adobe Illustrator 18.1.1, SVG Export Plug-In . SVG Version: 6.00 Build 0)  -->
<svg version="1.1" id="Capa_1" xmlns="http://www.w3.org/2000/svg" xmlns:xlink="http://www.w3.org/1999/xlink" x="0px" y="0px"
	 viewBox="0 0 401.532 401.532" style="enable-background:new 0 0 401.532 401.532;" xml:space="preserve">
<g>
	<g id="Layer_1_31_">
		<g>
			<path d="M208.518,187.496c-12.797-4.284-26.646,2.629-30.92,15.423c-4.276,12.8,2.624,26.639,15.424,30.914
				c12.798,4.285,26.641-2.624,30.923-15.42C228.222,205.613,221.315,191.776,208.518,187.496z"/>
			<path d="M379.813,42.901c-2.13-8.16-7.599-14.477-14.512-16.771C313.039,8.792,257.685,0,200.776,0
				C143.864,0,88.5,8.792,36.231,26.13c-6.913,2.292-12.381,8.609-14.511,16.769c-2.133,8.159-0.64,17.05,3.965,23.604l8.709,12.404
				c8.976,12.785,17.952,25.567,26.929,38.347c4.881,6.949,12.475,10.175,19.864,8.637l49.635,66.987
				c-1.187,2.252-1.601,4.918-0.973,7.59l10.641,45.141c0.811,3.363,3.116,6.395,6.505,7.945l0.806,0.369l22.641,10.388v51.064
				l-10.587,12.567l-0.828,0.979c-2.108,2.509-3.314,5.786-3.165,9.322l2.208,50.729c0.314,6.739,5.74,12.281,12.608,12.55
				c7.247,0.28,13.345-5.367,13.626-12.612l1.715-44.194l13.652-13.734l13.655,13.734l1.714,44.194
				c0.28,6.741,5.684,12.31,12.55,12.609c7.245,0.315,13.375-5.303,13.69-12.547l2.201-50.729c0.136-3.275-0.9-6.642-3.182-9.349
				l-0.808-0.953l-8.39-9.958v-53.674l22.64-10.388l0.861-0.396c3.134-1.455,5.595-4.293,6.449-7.918l10.64-45.141
				c0.611-2.637,0.204-5.309-0.983-7.582l49.637-66.994c1.209,0.254,2.43,0.392,3.639,0.392c6.172,0,12.148-3.226,16.227-9.029
				l35.635-50.747C380.451,59.949,381.944,51.059,379.813,42.901z M312.92,123.645l-44.866,60.553l18.449-67.714
				C295.41,118.55,304.218,120.932,312.92,123.645z M115.031,116.484l18.448,67.714l-44.866-60.553
				C97.316,120.932,106.123,118.55,115.031,116.484z M250.611,194.662l-11.999,37.929l-19.477,7.436h-36.73l-19.476-7.436
				l-11.998-37.929c-1.326-4.143-4.948-7.025-9.09-7.55l-19.672-72.206c25.559-5.385,51.86-8.119,78.601-8.119
				c26.736,0,53.037,2.734,78.593,8.119l-19.671,72.203C255.585,187.629,251.941,190.45,250.611,194.662z"/>
		</g>
	</g>
</g>
<g>
</g>
<g>
</g>
<g>
</g>
<g>
</g>
<g>
</g>
<g>
</g>
<g>
</g>
<g>
</g>
<g>
</g>
<g>
</g>
<g>
</g>
<g>
</g>
<g>
</g>
<g>
</g>
<g>
</g>
</svg>
